<mxfile host="65bd71144e">
    <diagram id="9oQjRgAzvWI0riyVlbKZ" name="Page-1">
        <mxGraphModel dx="757" dy="1084" grid="0" gridSize="10" guides="1" tooltips="1" connect="1" arrows="1" fold="1" page="1" pageScale="1" pageWidth="850" pageHeight="1100" background="none" math="0" shadow="0">
            <root>
                <mxCell id="0"/>
                <mxCell id="1" parent="0"/>
                <mxCell id="EPhykhxUrNCwXVirl36i-21" value="fill buffer with chars from fd with read" style="text;html=1;strokeColor=none;fillColor=none;align=center;verticalAlign=middle;whiteSpace=wrap;rounded=0;" parent="1" vertex="1">
                    <mxGeometry x="241" y="280" width="128" height="30" as="geometry"/>
                </mxCell>
                <mxCell id="EPhykhxUrNCwXVirl36i-45" value="array to return" style="text;html=1;align=center;verticalAlign=middle;resizable=0;points=[];autosize=1;strokeColor=none;fillColor=none;" parent="1" vertex="1">
                    <mxGeometry x="412" y="576" width="93" height="26" as="geometry"/>
                </mxCell>
                <mxCell id="EPhykhxUrNCwXVirl36i-48" value="" style="edgeStyle=none;orthogonalLoop=1;jettySize=auto;html=1;exitX=0;exitY=0.5;exitDx=0;exitDy=0;entryX=1;entryY=0.6;entryDx=0;entryDy=0;entryPerimeter=0;" parent="1" source="EPhykhxUrNCwXVirl36i-20" target="EPhykhxUrNCwXVirl36i-19" edge="1">
                    <mxGeometry width="100" relative="1" as="geometry">
                        <mxPoint x="407" y="421" as="sourcePoint"/>
                        <mxPoint x="507" y="421" as="targetPoint"/>
                        <Array as="points"/>
                    </mxGeometry>
                </mxCell>
                <mxCell id="EPhykhxUrNCwXVirl36i-49" value="" style="edgeStyle=none;orthogonalLoop=1;jettySize=auto;html=1;exitX=0.5;exitY=0;exitDx=0;exitDy=0;entryX=1;entryY=0.5;entryDx=0;entryDy=0;" parent="1" source="18" target="EPhykhxUrNCwXVirl36i-40" edge="1">
                    <mxGeometry width="100" relative="1" as="geometry">
                        <mxPoint x="442" y="437" as="sourcePoint"/>
                        <mxPoint x="542" y="437" as="targetPoint"/>
                        <Array as="points"/>
                    </mxGeometry>
                </mxCell>
                <mxCell id="EPhykhxUrNCwXVirl36i-50" value="size of Buffer_size" style="text;html=1;align=center;verticalAlign=middle;resizable=0;points=[];autosize=1;strokeColor=none;fillColor=none;rotation=45;" parent="1" vertex="1">
                    <mxGeometry x="378" y="369" width="116" height="26" as="geometry"/>
                </mxCell>
                <mxCell id="EPhykhxUrNCwXVirl36i-52" value="" style="group" parent="1" vertex="1" connectable="0">
                    <mxGeometry x="189" y="367" width="72" height="60" as="geometry"/>
                </mxCell>
                <mxCell id="14" value="current_char" style="text;html=1;strokeColor=none;fillColor=none;align=center;verticalAlign=middle;whiteSpace=wrap;rounded=0;" parent="EPhykhxUrNCwXVirl36i-52" vertex="1">
                    <mxGeometry y="39" width="72" height="21" as="geometry"/>
                </mxCell>
                <mxCell id="EPhykhxUrNCwXVirl36i-51" value="" style="edgeStyle=none;orthogonalLoop=1;jettySize=auto;html=1;exitX=0.5;exitY=0;exitDx=0;exitDy=0;" parent="EPhykhxUrNCwXVirl36i-52" source="14" edge="1">
                    <mxGeometry width="100" relative="1" as="geometry">
                        <mxPoint x="-17" y="23" as="sourcePoint"/>
                        <mxPoint x="70" as="targetPoint"/>
                        <Array as="points"/>
                    </mxGeometry>
                </mxCell>
                <mxCell id="EPhykhxUrNCwXVirl36i-53" value="" style="group" parent="1" vertex="1" connectable="0">
                    <mxGeometry x="356" y="369" width="72" height="44" as="geometry"/>
                </mxCell>
                <mxCell id="EPhykhxUrNCwXVirl36i-18" value="buffer_index" style="text;html=1;strokeColor=none;fillColor=none;align=center;verticalAlign=middle;whiteSpace=wrap;rounded=0;" parent="EPhykhxUrNCwXVirl36i-53" vertex="1">
                    <mxGeometry y="23" width="72" height="21" as="geometry"/>
                </mxCell>
                <mxCell id="EPhykhxUrNCwXVirl36i-27" value="" style="endArrow=classic;html=1;exitX=0.5;exitY=0;exitDx=0;exitDy=0;" parent="EPhykhxUrNCwXVirl36i-53" source="EPhykhxUrNCwXVirl36i-18" edge="1">
                    <mxGeometry width="50" height="50" relative="1" as="geometry">
                        <mxPoint x="15" y="59" as="sourcePoint"/>
                        <mxPoint x="19" as="targetPoint"/>
                    </mxGeometry>
                </mxCell>
                <mxCell id="EPhykhxUrNCwXVirl36i-54" value="" style="group" parent="1" vertex="1" connectable="0">
                    <mxGeometry x="273" y="618" width="72" height="58" as="geometry"/>
                </mxCell>
                <mxCell id="EPhykhxUrNCwXVirl36i-46" value="line_index" style="text;html=1;strokeColor=none;fillColor=none;align=center;verticalAlign=middle;whiteSpace=wrap;rounded=0;" parent="EPhykhxUrNCwXVirl36i-54" vertex="1">
                    <mxGeometry y="37" width="72" height="21" as="geometry"/>
                </mxCell>
                <mxCell id="EPhykhxUrNCwXVirl36i-47" value="" style="endArrow=classic;html=1;exitX=0.5;exitY=0;exitDx=0;exitDy=0;" parent="EPhykhxUrNCwXVirl36i-54" source="EPhykhxUrNCwXVirl36i-46" edge="1">
                    <mxGeometry width="50" height="50" relative="1" as="geometry">
                        <mxPoint x="15" y="73" as="sourcePoint"/>
                        <mxPoint x="36" as="targetPoint"/>
                    </mxGeometry>
                </mxCell>
                <mxCell id="EPhykhxUrNCwXVirl36i-55" value="" style="group" parent="1" vertex="1" connectable="0">
                    <mxGeometry x="460" y="463" width="74" height="38" as="geometry"/>
                </mxCell>
                <mxCell id="18" value="bytes_read" style="text;html=1;strokeColor=none;fillColor=none;align=center;verticalAlign=middle;whiteSpace=wrap;rounded=0;" parent="EPhykhxUrNCwXVirl36i-55" vertex="1">
                    <mxGeometry width="72" height="21" as="geometry"/>
                </mxCell>
                <mxCell id="EPhykhxUrNCwXVirl36i-20" value="(read all fd)" style="text;html=1;strokeColor=none;fillColor=none;align=center;verticalAlign=middle;whiteSpace=wrap;rounded=0;" parent="EPhykhxUrNCwXVirl36i-55" vertex="1">
                    <mxGeometry x="2" y="17" width="72" height="21" as="geometry"/>
                </mxCell>
                <mxCell id="EPhykhxUrNCwXVirl36i-56" value="" style="group" parent="1" vertex="1" connectable="0">
                    <mxGeometry x="246" y="318" width="119" height="42" as="geometry"/>
                </mxCell>
                <mxCell id="EPhykhxUrNCwXVirl36i-39" value="\n" style="rounded=0;whiteSpace=wrap;html=1;" parent="EPhykhxUrNCwXVirl36i-56" vertex="1">
                    <mxGeometry x="95" y="18" width="24" height="24" as="geometry"/>
                </mxCell>
                <mxCell id="EPhykhxUrNCwXVirl36i-40" value="buffer" style="rounded=0;whiteSpace=wrap;html=1;" parent="EPhykhxUrNCwXVirl36i-56" vertex="1">
                    <mxGeometry width="119" height="18" as="geometry"/>
                </mxCell>
                <mxCell id="EPhykhxUrNCwXVirl36i-41" value="o" style="rounded=0;whiteSpace=wrap;html=1;" parent="EPhykhxUrNCwXVirl36i-56" vertex="1">
                    <mxGeometry x="72" y="18" width="24" height="24" as="geometry"/>
                </mxCell>
                <mxCell id="EPhykhxUrNCwXVirl36i-42" value="...." style="rounded=0;whiteSpace=wrap;html=1;" parent="EPhykhxUrNCwXVirl36i-56" vertex="1">
                    <mxGeometry x="48" y="18" width="24" height="24" as="geometry"/>
                </mxCell>
                <mxCell id="EPhykhxUrNCwXVirl36i-43" value="e" style="rounded=0;whiteSpace=wrap;html=1;" parent="EPhykhxUrNCwXVirl36i-56" vertex="1">
                    <mxGeometry x="24" y="18" width="24" height="24" as="geometry"/>
                </mxCell>
                <mxCell id="EPhykhxUrNCwXVirl36i-44" value="H" style="rounded=0;whiteSpace=wrap;html=1;" parent="EPhykhxUrNCwXVirl36i-56" vertex="1">
                    <mxGeometry y="18" width="24" height="24" as="geometry"/>
                </mxCell>
                <mxCell id="EPhykhxUrNCwXVirl36i-57" value="" style="group" parent="1" vertex="1" connectable="0">
                    <mxGeometry x="293" y="570" width="119" height="42" as="geometry"/>
                </mxCell>
                <mxCell id="EPhykhxUrNCwXVirl36i-28" value="\n" style="rounded=0;whiteSpace=wrap;html=1;" parent="EPhykhxUrNCwXVirl36i-57" vertex="1">
                    <mxGeometry x="95" y="18" width="24" height="24" as="geometry"/>
                </mxCell>
                <mxCell id="EPhykhxUrNCwXVirl36i-32" value="Line" style="rounded=0;whiteSpace=wrap;html=1;" parent="EPhykhxUrNCwXVirl36i-57" vertex="1">
                    <mxGeometry width="119" height="18" as="geometry"/>
                </mxCell>
                <mxCell id="EPhykhxUrNCwXVirl36i-35" value="o" style="rounded=0;whiteSpace=wrap;html=1;" parent="EPhykhxUrNCwXVirl36i-57" vertex="1">
                    <mxGeometry x="72" y="18" width="24" height="24" as="geometry"/>
                </mxCell>
                <mxCell id="EPhykhxUrNCwXVirl36i-36" value="...." style="rounded=0;whiteSpace=wrap;html=1;" parent="EPhykhxUrNCwXVirl36i-57" vertex="1">
                    <mxGeometry x="48" y="18" width="24" height="24" as="geometry"/>
                </mxCell>
                <mxCell id="EPhykhxUrNCwXVirl36i-37" value="e" style="rounded=0;whiteSpace=wrap;html=1;" parent="EPhykhxUrNCwXVirl36i-57" vertex="1">
                    <mxGeometry x="24" y="18" width="24" height="24" as="geometry"/>
                </mxCell>
                <mxCell id="EPhykhxUrNCwXVirl36i-38" value="H" style="rounded=0;whiteSpace=wrap;html=1;" parent="EPhykhxUrNCwXVirl36i-57" vertex="1">
                    <mxGeometry y="18" width="24" height="24" as="geometry"/>
                </mxCell>
                <mxCell id="EPhykhxUrNCwXVirl36i-58" value="" style="group" parent="1" vertex="1" connectable="0">
                    <mxGeometry x="322" y="448" width="82" height="85" as="geometry"/>
                </mxCell>
                <mxCell id="3" value="Hello" style="rounded=0;whiteSpace=wrap;html=1;" parent="EPhykhxUrNCwXVirl36i-58" vertex="1">
                    <mxGeometry width="56" height="17" as="geometry"/>
                </mxCell>
                <mxCell id="10" value="World" style="rounded=0;whiteSpace=wrap;html=1;" parent="EPhykhxUrNCwXVirl36i-58" vertex="1">
                    <mxGeometry y="17" width="56" height="17" as="geometry"/>
                </mxCell>
                <mxCell id="11" value="This" style="rounded=0;whiteSpace=wrap;html=1;" parent="EPhykhxUrNCwXVirl36i-58" vertex="1">
                    <mxGeometry y="34" width="56" height="17" as="geometry"/>
                </mxCell>
                <mxCell id="12" value="is" style="rounded=0;whiteSpace=wrap;html=1;" parent="EPhykhxUrNCwXVirl36i-58" vertex="1">
                    <mxGeometry y="51" width="56" height="17" as="geometry"/>
                </mxCell>
                <mxCell id="13" value="\0" style="rounded=0;whiteSpace=wrap;html=1;" parent="EPhykhxUrNCwXVirl36i-58" vertex="1">
                    <mxGeometry y="68" width="56" height="17" as="geometry"/>
                </mxCell>
                <mxCell id="EPhykhxUrNCwXVirl36i-19" value="fd" style="rounded=0;whiteSpace=wrap;html=1;" parent="EPhykhxUrNCwXVirl36i-58" vertex="1">
                    <mxGeometry x="56" width="26" height="85" as="geometry"/>
                </mxCell>
                <mxCell id="EPhykhxUrNCwXVirl36i-59" value="" style="endArrow=classic;html=1;entryX=0.5;entryY=1;entryDx=0;entryDy=0;exitX=0;exitY=0.5;exitDx=0;exitDy=0;" parent="1" source="EPhykhxUrNCwXVirl36i-46" target="14" edge="1">
                    <mxGeometry width="50" height="50" relative="1" as="geometry">
                        <mxPoint x="124" y="630" as="sourcePoint"/>
                        <mxPoint x="328" y="433" as="targetPoint"/>
                        <Array as="points">
                            <mxPoint x="248" y="654"/>
                            <mxPoint x="223" y="578"/>
                        </Array>
                    </mxGeometry>
                </mxCell>
            </root>
        </mxGraphModel>
    </diagram>
</mxfile>
